<?xml version="1.0" encoding="UTF-8" standalone="no"?>
<!DOCTYPE svg PUBLIC "-//W3C//DTD SVG 1.1//EN" "http://www.w3.org/Graphics/SVG/1.1/DTD/svg11.dtd">
<svg version="1.1" xmlns="http://www.w3.org/2000/svg" xmlns:xlink="http://www.w3.org/1999/xlink" preserveAspectRatio="xMidYMid meet" viewBox="0 0 640 640" width="640" height="640"><defs><path d="M358.18 138.13C373.51 138.13 385.93 150.56 385.93 165.88C385.93 208.9 385.93 310.22 385.93 353.24C385.93 368.56 373.51 380.99 358.18 380.99C314.94 380.99 212.97 380.99 169.73 380.99C154.4 380.99 141.98 368.56 141.98 353.24C141.98 310.22 141.98 208.9 141.98 165.88C141.98 150.56 154.4 138.13 169.73 138.13C212.97 138.13 314.94 138.13 358.18 138.13Z" id="a4Q0Ex7s2"></path><path d="M136.48 348.02C280.26 400.4 350.59 415.42 347.47 393.08C344.36 370.73 350.59 335.93 366.15 288.68L162.86 267.8L193.63 134.84L391.43 211.76" id="c1OK1FhoR3"></path></defs><g><g><g><use xlink:href="#a4Q0Ex7s2" opacity="1" fill="#2cde5c" fill-opacity="1"></use></g><g><g><filter id="shadow14466140" x="7.48" y="5.84" width="562.95" height="568.26" filterUnits="userSpaceOnUse" primitiveUnits="userSpaceOnUse"><feFlood></feFlood><feComposite in2="SourceAlpha" operator="in"></feComposite><feGaussianBlur stdDeviation="4.47"></feGaussianBlur><feOffset dx="50" dy="42" result="afterOffset"></feOffset><feFlood flood-color="#f30add" flood-opacity="0.99"></feFlood><feComposite in2="afterOffset" operator="in"></feComposite><feMorphology operator="dilate" radius="34"></feMorphology><feComposite in2="SourceAlpha" operator="out"></feComposite></filter><path d="M136.48 348.02C280.26 400.4 350.59 415.42 347.47 393.08C344.36 370.73 350.59 335.93 366.15 288.68L162.86 267.8L193.63 134.84L391.43 211.76" id="b42RvSJCPS" fill="none" stroke="white" filter="url(#shadow14466140)"></path></g><g><use xlink:href="#c1OK1FhoR3" opacity="1" fill-opacity="0" stroke="#06d7f3" stroke-width="20" stroke-opacity="1"></use></g><g><filter id="shadow1727863" x="111.48" y="109.84" width="309.95" height="323.26" filterUnits="userSpaceOnUse" primitiveUnits="userSpaceOnUse"><feFlood></feFlood><feComposite in2="SourceAlpha" operator="out"></feComposite><feGaussianBlur stdDeviation="2.24"></feGaussianBlur><feOffset dx="5" dy="5" result="afterOffset"></feOffset><feFlood flood-color="#7d05e8" flood-opacity="0.8"></feFlood><feComposite in2="afterOffset" operator="in"></feComposite><feMorphology operator="dilate" radius="5"></feMorphology><feComposite in2="SourceAlpha" operator="in"></feComposite></filter><path d="M136.48 348.02C280.26 400.4 350.59 415.42 347.47 393.08C344.36 370.73 350.59 335.93 366.15 288.68L162.86 267.8L193.63 134.84L391.43 211.76" id="a5dD2JZuf" fill="none" stroke="white" filter="url(#shadow1727863)"></path></g></g></g></g></svg>